<svg xmlns="http://www.w3.org/2000/svg" viewBox="0 0 200 200">
  <path fill="#d01a2d" d="M148.5,35.5c-10.3-2.6-20.7,1.1-26.7,9.8c-5.7,8.3-4.8,21.9-3.3,31.5c0.8,5.5,2.1,11,3.3,16.4c-6.7,4.3-14,7.9-21.7,10.9c-9.9,3.8-20.2,6.7-30.7,8.8c-3.2,0.6-6.3,1.3-9.5,2c-2.3,0.5-4.7,1-7,1.6c-5.5,1.4-10.7,3.5-15.3,6.8c-4.5,3.2-8.1,7.7-9.2,13.2c-0.7,3.6-0.2,7.4,1.4,10.7c1.5,3,4.1,5.4,7.2,7.1c6,3.4,13,4.3,19.8,4.8c7.7,0.6,15.5,0.5,23.2-0.2c5.3-0.5,10.5-1.4,15.7-2.7c2.5,6.1,4.8,12.3,7.1,18.5c-3,0.9-5.9,2-8.8,3.3c-2.5,1.1-4.6,3-5.8,5.5c-1.1,2.3-1.3,5-0.7,7.5c0.7,3.1,3.1,5.6,6,6.9c4.1,1.8,8.8,1.7,13.1,0.8c1.1-3,2.2-6,3.4-9c3.6,1.3,7.2,2.4,10.9,3.4c3.4,0.9,6.9,1.7,10.4,1.8c2.6,0.1,5.1-0.5,7.4-1.7c2.4-1.3,4.3-3.4,5.2-5.9c0.8-2.4,0.6-5-0.5-7.4c-1-2.3-3-4.1-5.3-5.3c-3.5-1.8-7.6-2.4-11.5-2.2c-1.6-5.3-3.1-10.7-4.8-16c7.6-5.2,14.9-11,21.8-17.3c9-8.3,17.1-17.5,23.5-28.1c5.9-9.9,10.4-21.1,10.6-32.8c0.1-5.2-1-10.3-3.1-15c-2.5-5.6-6.7-10.2-12.1-13.2C161.2,37.8,154.9,35.5,148.5,35.5z"/>
</svg>
