<svg xmlns="http://www.w3.org/2000/svg" viewBox="0 0 512 512" width="50" height="50">
  <path fill="#C41230" d="M464.4,49.9c-16.6-4.6-46.6,12.7-56,26.7c-9,13.4-6.6,28.6-6.6,28.6s17.9,29.9,13.3,55.7
	c-4.4,24.6-32.9,59-29.6,90.2c2.1,19.9,13.3,42.5,23.6,56.1c16.3,21.6,27.2,33.2,27.2,33.2l-0.3,1.3c0,0-28.9-8-51.1-1.3
	c-27.6,8.3-43.8,25.9-46.5,29.2c-5.3,6.6-8.3,15.6-8.3,15.6l6.6,63.1l80.3,11l6,14.6l-89.3,2l-6.6-58.4l-3-22.6
	c-9.3-5-28.2-12-42.5-9.3c-28.6,5.3-51.4,26.2-70.4,26.2c-29.2,0-76.7-18.9-106.9-38.2C54.1,344.2,35.2,319,25.6,306
	c-7.2-9.7-25.6-22.9-25.6-22.9l36.5-12.6l-6.6-14l-29.9,8.6l-0.3-1.7l46.1-23.2c0,0,32.2-22.2,63.4-38.5
	c31.2-16.3,87.3-33.5,133.5-33.5c46.1,0,76.4,7,76.4,7s-9-46.1,3.3-70.4c9-17.6,22.2-30.2,28.6-34.9c9.3-6.9,28.9-12.9,34.9-14.9
	c17.9-6,39.5-2,46.1,0L464.4,49.9z"/>
</svg>
