<svg xmlns="http://www.w3.org/2000/svg" viewBox="0 0 512 512" width="50" height="50">
  <path fill="#C41230" d="M165.9 397.4c0 0-22.1 3.1-28.8 1.9c-19.5-3.5-16.7-27.1-16.7-27.1s-10.7-19.1-10.7-33.1c0-21.6 30.6-43.2 27.5-62.5c-3.3-20.7-36.9-39.2-36.9-61.9c0-19 14.8-38.3 40.5-38.3c8.9 0 17.1 2.2 22.1 5.4c2.6-3 5.4-6.4 8.7-10.2c16.3-18.9 44.8-36.8 69.2-16.9c25.2 20.6 6.3 47.9 31.8 68.3c15.8 12.7 41.5 13.9 66.8 35.8c29.5 25.5 28.5 61.3 28.5 61.3s23.4 20.2 25.2 46.7c1.3 19.3-16.5 35.9-16.5 35.9l-72.3 8.3c0 0-33.7 20.1-66.2 13.9C211.7 419.6 182.2 410.8 165.9 397.4z"/>
  <path fill="#C41230" d="M129.5 177.6c-26 2-46.1 1.7-54.8-5.5c-8.9-7.3-3.6-21.7 4.1-26.6c11.9-7.5 34.2-7.5 50.1-2.9L129.5 177.6z"/>
  <circle fill="#1a1a1a" cx="155" cy="195" r="5"/>
</svg>
