<svg xmlns="http://www.w3.org/2000/svg" viewBox="0 0 100 100" width="50" height="50">
  <path fill="#C41230" d="M78.6,22.4c-2.6-0.8-5.3-0.5-7.7,0.7c-2.4-1.8-5.5-2.6-8.6-2.1c-6.2,1-10.4,6.9-9.3,13.1c0.3,1.6,0.9,3.1,1.7,4.4
    c-4.4,5.3-7.5,11.7-8.8,18.5c-0.8,3.9-1.1,7.9-0.8,11.8c-7.4,1.4-14.4,4.2-20.7,8.3c-2,1.3-2.6,3.9-1.3,5.9c1.3,2,3.9,2.6,5.9,1.3
    c5.6-3.7,11.9-6.2,18.5-7.4c0.5,5.1,1.9,10,4.2,14.6c1.1,2.2,3.7,3.1,5.9,2c2.2-1.1,3.1-3.7,2-5.9c-2-4-3.2-8.4-3.6-12.9
    c6.7-0.7,13.3-0.3,19.7,1.3c2.4,0.6,4.8-0.9,5.4-3.3c0.6-2.4-0.9-4.8-3.3-5.4c-6.8-1.7-13.9-2.2-21-1.5c-0.2-2.7-0.1-5.5,0.4-8.2
    c1.6-8.6,5.6-16.6,11.4-23.2c1.7,0.3,3.5,0.2,5.1-0.3c3-1,4.7-4.2,3.7-7.2C85.5,23.8,82.3,21.7,78.6,22.4z"/>
</svg>
